<?xml version="1.0" standalone="no"?><!DOCTYPE svg PUBLIC "-//W3C//DTD SVG 1.1//EN" "http://www.w3.org/Graphics/SVG/1.1/DTD/svg11.dtd"><svg height="1024" node-id="1" sillyvg="true" template-height="1024" template-width="1024" version="1.1" viewBox="0 0 1024 1024" width="1024" xmlns="http://www.w3.org/2000/svg" xmlns:xlink="http://www.w3.org/1999/xlink"><defs node-id="78"></defs><g node-id="226"><path d="M 889.07 425.17 C 713.53 387.61 771.49 53.89 416.30 53.89 C 177.64 53.89 106.56 202.23 85.60 299.57 C 83.50 309.31 82.35 321.57 81.85 334.99 L 123.24 355.80 C 125.89 357.13 127.28 360.11 126.60 362.99 C 125.91 365.88 123.34 367.92 120.37 367.92 C 119.37 367.92 118.39 367.68 117.50 367.23 L 81.55 349.17 C 81.58 379.92 83.73 410.64 88.00 441.09 C 92.90 473.79 90.44 505.90 64.44 609.29 C -14.18 921.63 312.36 750.00 623.46 812.34 C 934.56 874.68 1064.61 462.73 889.07 425.17 Z" fill="#e61f19" fill-opacity="0.2" fill-rule="nonzero" group-id="1" node-id="82" stroke="none" target-height="867.74" target-width="1078.79" target-x="-14.18" target-y="53.89"></path></g><path d="M 142.17 828.64 C 142.17 607.76 321.24 428.69 542.17 428.69 C 763.10 428.69 942.17 607.76 942.17 828.69" fill="#ffffff" fill-rule="nonzero" node-id="85" stroke="none" target-height="400" target-width="800" target-x="142.17" target-y="428.69"></path><path d="M 942.07 830.77 C 940.89 830.77 939.94 829.82 939.94 828.64 C 939.94 609.28 761.48 430.82 542.12 430.82 C 322.76 430.82 144.31 609.28 144.31 828.64 C 144.23 829.76 143.30 830.63 142.18 830.63 C 141.05 830.63 140.12 829.76 140.04 828.64 C 140.04 606.93 320.42 426.56 542.12 426.56 C 763.82 426.56 944.21 606.93 944.21 828.64 C 944.21 829.21 943.98 829.75 943.58 830.15 C 943.18 830.55 942.64 830.77 942.07 830.77 Z" fill="#040000" fill-rule="nonzero" node-id="87" stroke="none" target-height="404.21265" target-width="804.17004" target-x="140.04" target-y="426.56"></path><path d="M 287.35 562.86 C 287.35 562.86 260.92 662.57 324.59 672.18 C 388.26 681.79 496.38 575.64 496.38 575.64 L 525.57 556.20 C 534.25 550.78 541.37 543.20 546.24 534.20 C 550.51 526.08 554.35 517.78 544.44 515.98 C 544.44 515.98 553.95 499.41 538.98 499.41 C 538.98 499.41 542.43 482.94 526.98 489.55 C 526.98 489.55 521.72 476.18 511.98 485.95 C 502.77 495.16 498.23 508.43 483.22 517.64 C 483.22 517.64 490.56 500.36 481.75 497.36 C 472.94 494.36 467.75 505.36 462.33 533.20 C 462.33 533.20 461.92 540.81 457.72 542.81 C 453.82 544.67 386.63 589.29 361.30 597.30 C 360.08 597.67 358.76 597.45 357.72 596.70 C 356.69 595.96 356.06 594.77 356.02 593.50 L 355.41 577.65" fill="#ffffff" fill-rule="nonzero" node-id="89" stroke="none" target-height="205.60999" target-width="293.42996" target-x="260.92" target-y="476.18"></path><path d="M 333.21 674.94 C 330.22 674.95 327.24 674.73 324.28 674.29 C 309.77 672.10 298.61 665.19 291.10 653.75 C 269.94 621.52 284.65 564.75 285.29 562.32 C 285.44 561.54 286.02 560.91 286.78 560.68 C 287.55 560.46 288.38 560.67 288.93 561.25 C 289.48 561.82 289.67 562.65 289.42 563.41 C 289.26 563.98 274.55 620.79 294.67 651.41 C 301.49 661.78 311.67 668.06 324.91 670.06 C 327.63 670.46 330.37 670.66 333.12 670.65 C 395.80 670.65 493.86 575.12 494.89 574.11 L 524.39 554.41 C 532.78 549.20 539.67 541.90 544.39 533.23 C 546.39 529.48 549.64 523.23 548.25 520.37 C 547.71 519.27 546.31 518.50 544.09 518.10 C 543.41 517.97 542.83 517.53 542.54 516.90 C 542.25 516.27 542.28 515.54 542.62 514.94 C 543.74 512.94 546.52 506.74 544.75 503.69 C 543.93 502.28 542.00 501.56 539.02 501.56 C 538.38 501.56 537.77 501.27 537.37 500.78 C 536.96 500.28 536.80 499.63 536.93 499.00 C 537.26 497.41 537.72 492.52 535.64 490.83 C 533.91 489.41 530.47 490.43 527.90 491.53 C 527.37 491.75 526.77 491.75 526.24 491.53 C 525.71 491.31 525.29 490.89 525.07 490.36 C 524.51 488.95 522.45 485.18 519.65 484.61 C 517.88 484.25 515.82 485.21 513.55 487.47 C 510.37 490.85 507.49 494.50 504.93 498.37 C 499.98 505.37 494.36 513.37 484.39 519.48 C 483.60 519.97 482.58 519.89 481.88 519.28 C 481.17 518.68 480.94 517.68 481.31 516.83 C 482.52 513.97 485.25 505.65 483.38 501.48 C 482.98 500.48 482.15 499.72 481.12 499.40 C 479.74 498.82 478.17 498.91 476.87 499.65 C 471.08 503.01 467.21 519.57 464.48 533.65 C 464.48 534.26 463.90 542.30 458.70 544.77 C 457.97 545.12 453.63 547.86 448.60 551.04 C 427.00 564.65 382.09 593.00 362.00 599.37 C 360.17 599.96 358.17 599.65 356.62 598.52 C 355.00 597.40 354.01 595.58 353.95 593.61 L 353.34 577.77 C 353.29 576.59 354.21 575.60 355.39 575.55 C 356.55 575.56 357.51 576.45 357.60 577.60 L 358.21 593.45 C 358.22 594.06 358.51 594.63 359.00 595.00 C 359.48 595.34 360.08 595.44 360.64 595.26 C 380.24 589.06 426.50 559.85 446.25 547.38 C 452.90 543.18 455.87 541.31 456.79 540.87 C 459.27 539.69 460.09 534.72 460.19 533.07 C 464.65 509.99 468.83 499.31 474.66 495.93 C 477.03 494.57 479.87 494.35 482.42 495.33 C 484.57 496.04 486.31 497.63 487.21 499.71 C 488.83 503.34 488.21 508.27 487.21 512.18 C 493.36 507.18 497.40 501.48 501.34 495.88 C 504.03 491.81 507.08 487.98 510.43 484.43 C 513.79 481.08 517.17 479.72 520.43 480.43 C 524.25 481.23 526.76 484.66 528.01 486.88 C 532.41 485.35 535.86 485.56 538.25 487.53 C 541.33 490.06 541.55 494.61 541.34 497.44 C 544.66 497.88 547.01 499.26 548.34 501.56 C 550.73 505.67 548.88 511.38 547.44 514.63 C 549.40 515.28 551.04 516.67 551.99 518.51 C 554.15 522.93 551.37 528.93 548.07 535.21 C 543.05 544.53 535.69 552.38 526.72 558.00 L 497.57 577.43 C 478.09 596.06 457.40 613.37 435.62 629.25 C 393.69 659.60 359.30 674.93 333.21 674.94 Z" fill="#040000" fill-rule="nonzero" node-id="91" stroke="none" target-height="195.22629" target-width="284.21002" target-x="269.94" target-y="479.72"></path><path d="M 527.00 489.58 C 527.00 489.58 530.47 501.99 502.57 522.79" fill="#ffffff" fill-rule="nonzero" node-id="93" stroke="none" target-height="33.20999" target-width="27.899963" target-x="502.57" target-y="489.58"></path><path d="M 502.59 524.93 C 501.67 524.93 500.86 524.34 500.57 523.47 C 500.28 522.60 500.58 521.64 501.32 521.09 C 527.27 501.74 524.98 490.22 524.95 490.09 C 524.69 488.96 525.38 487.82 526.50 487.53 C 527.61 487.24 528.75 487.88 529.07 488.99 C 529.47 490.41 532.07 503.43 503.87 524.49 C 503.50 524.77 503.05 524.93 502.59 524.93 Z" fill="#040000" fill-rule="nonzero" node-id="95" stroke="none" target-height="37.694885" target-width="31.790771" target-x="500.27924" target-y="487.2351"></path><path d="M 539.00 496.21 C 539.00 496.21 533.93 521.59 510.06 533.03" fill="#ffffff" fill-rule="nonzero" node-id="97" stroke="none" target-height="36.820038" target-width="28.940002" target-x="510.06" target-y="496.21"></path><path d="M 510.06 535.16 C 509.07 535.15 508.21 534.47 507.99 533.50 C 507.77 532.53 508.24 531.54 509.13 531.10 C 531.71 520.28 536.85 496.04 536.90 495.79 C 537.13 494.64 538.26 493.89 539.41 494.12 C 540.56 494.35 541.31 495.48 541.08 496.63 C 540.87 497.71 535.52 523.19 510.98 534.95 C 510.69 535.09 510.38 535.16 510.06 535.16 Z" fill="#040000" fill-rule="nonzero" node-id="99" stroke="none" target-height="41.271942" target-width="33.544464" target-x="507.7675" target-y="493.88803"></path><path d="M 545.67 513.06 C 545.67 513.06 534.22 536.43 515.30 543.34" fill="#ffffff" fill-rule="nonzero" node-id="101" stroke="none" target-height="30.28003" target-width="30.369995" target-x="515.3" target-y="513.06"></path><path d="M 515.30 545.47 C 514.27 545.46 513.40 544.71 513.22 543.70 C 513.04 542.69 513.61 541.70 514.57 541.33 C 532.48 534.80 543.64 512.33 543.75 512.13 C 544.31 511.15 545.53 510.77 546.55 511.26 C 547.56 511.76 548.02 512.96 547.59 514.00 C 547.10 515.00 535.54 538.22 516.03 545.34 C 515.80 545.43 515.55 545.47 515.30 545.47 Z" fill="#040000" fill-rule="nonzero" node-id="103" stroke="none" target-height="34.70172" target-width="34.97278" target-x="513.0449" target-y="510.7708"></path><path d="M 687.16 779.90 C 685.94 779.90 684.72 779.71 683.55 779.36 C 677.13 777.45 673.47 770.36 675.38 763.59 C 677.69 755.39 682.49 737.45 683.85 725.38 C 678.95 731.29 670.70 739.20 662.85 736.87 C 660.23 736.09 658.10 734.19 657.02 731.68 C 655.79 728.92 655.82 725.76 657.09 723.02 C 659.33 718.29 664.23 712.94 671.66 707.11 C 672.36 706.63 685.87 697.21 684.15 676.92 C 684.05 675.44 674.06 532.04 666.23 488.78 C 666.13 488.21 666.26 487.63 666.59 487.16 C 666.93 486.70 667.43 486.38 668.00 486.29 L 728.00 476.94 C 728.61 476.85 729.22 477.02 729.69 477.42 C 730.17 477.81 730.44 478.39 730.46 479.00 L 735.36 670.30 C 735.36 671.30 735.28 672.44 735.22 673.82 C 734.98 679.25 734.41 691.98 736.37 695.11 C 743.01 705.72 747.56 725.59 740.37 749.53 C 739.45 752.70 737.78 755.59 735.49 757.96 C 733.80 759.78 731.64 761.09 729.24 761.73 C 727.89 764.09 724.06 770.00 718.83 771.38 C 716.89 771.89 714.83 771.73 713.00 770.92 C 709.62 774.64 703.19 778.77 696.15 775.30 C 694.02 778.14 690.71 779.83 687.16 779.90 Z M 686.32 716.34 C 686.51 716.34 686.70 716.37 686.88 716.42 C 687.79 716.67 688.43 717.48 688.45 718.42 C 688.94 729.35 683.05 752.16 679.45 764.78 C 678.19 769.26 680.60 774.08 684.72 775.31 C 688.20 776.43 691.97 774.81 693.56 771.52 C 693.84 770.97 694.34 770.57 694.94 770.41 C 695.53 770.26 696.17 770.37 696.68 770.71 C 704.20 775.84 710.50 767.36 710.76 766.99 C 711.44 766.06 712.73 765.83 713.68 766.48 C 714.84 767.35 716.33 767.65 717.74 767.30 C 721.53 766.30 724.95 760.90 725.95 758.91 C 726.27 758.27 726.89 757.83 727.60 757.74 C 729.50 757.41 731.22 756.44 732.50 755.00 C 734.30 753.13 735.61 750.84 736.33 748.35 C 743.09 725.76 738.93 707.23 732.78 697.42 C 730.32 693.48 730.55 683.53 730.99 673.67 C 731.05 672.33 731.10 671.19 731.12 670.34 L 726.29 481.58 L 670.80 490.22 C 678.61 536.09 688.30 675.22 688.40 676.63 C 690.33 699.47 674.82 710.16 674.16 710.63 C 665.68 717.29 662.28 722.08 660.94 724.92 C 660.21 726.53 660.21 728.39 660.94 730.00 C 661.52 731.37 662.67 732.41 664.09 732.84 C 671.26 734.91 681.31 722.40 684.57 717.38 C 684.94 716.76 685.60 716.37 686.32 716.34 Z" fill="#040000" fill-rule="nonzero" node-id="105" stroke="none" target-height="303.05203" target-width="91.76758" target-x="655.7924" target-y="476.848"></path><path d="M 695.51 774.56 C 695.22 774.56 694.94 774.50 694.68 774.39 C 694.16 774.17 693.75 773.75 693.53 773.23 C 693.32 772.71 693.33 772.12 693.55 771.60 C 701.22 753.40 701.33 730.45 701.33 730.22 C 701.33 729.04 702.28 728.09 703.46 728.09 L 703.46 728.09 C 704.64 728.09 705.59 729.04 705.59 730.22 C 705.59 731.22 705.47 754.22 697.47 773.22 C 697.15 774.02 696.37 774.55 695.51 774.56 Z" fill="#040000" fill-rule="nonzero" node-id="107" stroke="none" target-height="46.471436" target-width="12.268311" target-x="693.3217" target-y="728.09"></path><path d="M 712.53 770.34 C 712.35 770.34 712.17 770.32 711.99 770.27 C 710.85 769.97 710.17 768.81 710.46 767.67 C 713.44 755.54 715.22 743.15 715.77 730.67 C 715.83 729.50 716.80 728.59 717.97 728.60 C 718.53 728.62 719.07 728.86 719.46 729.27 C 719.85 729.68 720.06 730.23 720.04 730.79 C 719.50 743.58 717.67 756.28 714.59 768.70 C 714.36 769.66 713.51 770.33 712.53 770.34 Z" fill="#040000" fill-rule="nonzero" node-id="109" stroke="none" target-height="41.748474" target-width="9.887634" target-x="710.1685" target-y="728.5929"></path><path d="M 727.90 762.00 C 727.68 762.00 727.47 761.97 727.26 761.90 C 726.13 761.55 725.51 760.35 725.86 759.22 C 731.80 740.34 729.38 729.64 729.36 729.53 C 729.09 728.39 729.79 727.24 730.93 726.96 C 731.48 726.82 732.06 726.91 732.54 727.20 C 733.02 727.50 733.37 727.97 733.50 728.52 C 733.62 729.00 736.27 740.35 729.93 760.52 C 729.65 761.40 728.83 762.00 727.90 762.00 Z" fill="#040000" fill-rule="nonzero" node-id="111" stroke="none" target-height="35.182312" target-width="10.762329" target-x="725.5077" target-y="726.8216"></path><path d="M 529.62 422.84 L 512.00 422.84 C 510.88 422.76 510.01 421.83 510.01 420.70 C 510.01 419.58 510.88 418.65 512.00 418.57 L 529.62 418.57 C 530.74 418.65 531.61 419.58 531.61 420.70 C 531.61 421.83 530.74 422.76 529.62 422.84 Z" fill="#040000" fill-rule="nonzero" node-id="113" stroke="none" target-height="4.269989" target-width="21.607574" target-x="510.0062" target-y="418.57"></path><path d="M 455.20 441.37 C 398.87 457.01 378.68 530.47 372.20 565.28 C 370.22 575.93 360.93 583.66 350.10 583.66 L 286.58 583.66 C 269.28 583.66 256.69 567.51 261.36 551.21 C 278.36 491.85 305.45 361.30 429.78 354.75 C 547.40 348.55 733.36 311.07 759.52 520.66 C 760.43 527.57 758.49 534.55 754.15 540.00 C 749.82 545.46 743.45 548.92 736.52 549.60 L 674.17 555.38 C 669.21 555.85 664.27 554.32 660.45 551.13 C 656.64 547.93 654.25 543.34 653.84 538.38 C 651.60 510.60 639.03 460.70 578.91 448.58" fill="#040000" fill-rule="nonzero" node-id="115" stroke="none" target-height="272.58997" target-width="503.7354" target-x="256.69" target-y="311.07"></path><path d="M 428.75 337.78 L 455.34 337.78 L 455.34 337.78 L 455.34 387.50 L 455.34 387.50 L 422.63 387.50 C 410.59 387.50 400.83 377.74 400.83 365.70 L 400.83 365.70 C 400.83 350.28 413.33 337.78 428.75 337.78 Z" fill="#ffffff" fill-rule="nonzero" node-id="117" stroke="none" target-height="49.72" target-width="54.51001" target-x="400.83" target-y="337.78"></path><path d="M 455.34 389.63 L 424.52 389.63 C 410.27 389.61 398.72 378.06 398.70 363.81 L 398.70 361.47 C 398.72 347.22 410.27 335.67 424.52 335.65 L 455.34 335.65 C 456.52 335.65 457.47 336.60 457.47 337.78 L 457.47 387.50 C 457.47 388.68 456.52 389.63 455.34 389.63 Z M 424.52 339.92 C 412.64 339.95 403.02 349.59 403.00 361.47 L 403.00 363.81 C 403.02 375.71 412.65 385.35 424.55 385.37 L 453.24 385.37 L 453.24 339.92 Z" fill="#040000" fill-rule="nonzero" node-id="119" stroke="none" target-height="53.98001" target-width="58.76999" target-x="398.7" target-y="335.65"></path><path d="M 615.37 387.50 L 585.72 387.50 L 585.72 387.50 L 585.72 337.78 L 585.72 337.78 L 615.37 337.78 L 618.78 338.02 L 622.00 338.67 L 625.05 339.73 L 627.93 341.18 L 630.56 342.96 L 632.95 345.06 L 635.05 347.45 L 636.83 350.08 L 638.28 352.96 L 639.34 356.01 L 639.99 359.23 L 640.23 362.64 L 640.23 362.64 L 639.99 366.05 L 639.34 369.27 L 638.28 372.32 L 636.83 375.20 L 635.05 377.83 L 632.95 380.22 L 630.56 382.32 L 627.93 384.10 L 625.05 385.55 L 622.00 386.61 L 618.78 387.26 L 615.37 387.50 Z" fill="#ffffff" fill-rule="nonzero" group-id="2" node-id="123" stroke="none" target-height="49.72" target-width="54.51001" target-x="585.72" target-y="337.78003"></path><path d="M 616.54 389.63 L 585.72 389.63 C 584.54 389.63 583.59 388.68 583.59 387.50 L 583.59 337.78 C 583.59 336.60 584.54 335.65 585.72 335.65 L 616.54 335.65 C 630.79 335.67 642.34 347.22 642.36 361.47 L 642.36 363.81 C 642.34 378.06 630.79 389.61 616.54 389.63 Z M 587.86 385.37 L 616.54 385.37 C 628.44 385.35 638.08 375.71 638.10 363.81 L 638.10 361.47 C 638.08 349.57 628.44 339.93 616.54 339.92 L 587.86 339.92 Z" fill="#040000" fill-rule="nonzero" node-id="126" stroke="none" target-height="53.98001" target-width="58.76996" target-x="583.59" target-y="335.65"></path><path d="M 935.41 335.14 C 934.76 335.14 934.14 334.84 933.74 334.33 L 910.57 305.00 C 910.07 304.41 909.93 303.58 910.21 302.86 C 910.48 302.13 911.14 301.61 911.91 301.51 C 912.68 301.41 913.45 301.73 913.91 302.36 L 937.08 331.68 C 937.59 332.32 937.68 333.19 937.33 333.93 C 936.97 334.66 936.23 335.13 935.41 335.13 Z" fill="#040000" fill-rule="nonzero" node-id="128" stroke="none" target-height="33.73346" target-width="27.755127" target-x="909.92596" target-y="301.40656"></path><path d="M 912.24 335.14 C 911.42 335.14 910.68 334.67 910.32 333.94 C 909.97 333.20 910.06 332.33 910.57 331.69 L 933.74 302.37 C 934.48 301.50 935.78 301.37 936.68 302.08 C 937.58 302.79 937.76 304.09 937.08 305.01 L 913.91 334.33 C 913.51 334.84 912.89 335.14 912.24 335.14 Z" fill="#040000" fill-rule="nonzero" node-id="130" stroke="none" target-height="33.773743" target-width="27.790405" target-x="909.96893" target-y="301.36627"></path><path d="M 184.82 613.39 C 183.73 613.39 182.81 612.57 182.70 611.48 L 178.70 574.33 C 178.58 573.16 179.42 572.11 180.59 571.99 C 181.77 571.86 182.82 572.71 182.94 573.88 L 186.94 611.03 C 187.00 611.59 186.84 612.16 186.48 612.60 C 186.13 613.04 185.61 613.32 185.05 613.38 Z" fill="#040000" fill-rule="nonzero" node-id="132" stroke="none" target-height="41.52997" target-width="8.425934" target-x="178.57573" target-y="571.8607"></path><path d="M 165.22 601.00 C 164.18 601.00 163.29 600.25 163.12 599.23 C 162.94 598.21 163.53 597.20 164.51 596.86 L 199.75 584.42 C 200.48 584.09 201.34 584.20 201.97 584.70 C 202.59 585.20 202.88 586.02 202.71 586.81 C 202.55 587.59 201.95 588.22 201.17 588.42 L 165.93 600.86 C 165.70 600.94 165.46 600.99 165.22 601.00 Z" fill="#040000" fill-rule="nonzero" node-id="134" stroke="none" target-height="16.91504" target-width="39.942062" target-x="162.93977" target-y="584.08746"></path><path d="M 938.00 425.59 C 933.22 425.59 928.82 422.23 924.92 415.59 C 921.84 410.34 918.68 407.59 915.79 407.51 L 915.72 407.51 C 912.09 407.51 908.99 411.81 907.82 413.66 C 906.13 416.55 903.95 419.12 901.38 421.26 C 893.92 427.12 886.02 426.10 879.69 418.50 C 876.55 414.73 873.55 412.82 870.77 412.82 C 867.99 412.82 865.84 414.73 864.50 416.34 C 861.50 419.92 858.62 422.23 855.62 423.43 C 851.31 425.13 844.86 425.79 838.56 419.21 C 836.06 416.60 833.56 415.40 831.00 415.63 C 826.09 416.07 822.38 421.63 822.34 421.63 C 821.69 422.62 820.37 422.89 819.39 422.24 C 818.40 421.60 818.12 420.28 818.77 419.29 C 818.97 418.99 823.62 411.99 830.59 411.35 C 834.46 410.97 838.20 412.63 841.59 416.23 C 845.33 420.13 849.50 421.23 853.99 419.43 C 856.31 418.51 858.66 416.60 861.17 413.58 C 863.09 411.28 866.31 408.53 870.72 408.52 L 870.72 408.52 C 874.82 408.52 878.93 410.95 882.91 415.74 C 887.84 421.65 893.00 422.35 898.69 417.88 C 900.87 416.03 902.72 413.83 904.16 411.36 C 906.10 408.29 910.09 403.18 915.80 403.21 C 920.32 403.28 924.61 406.70 928.55 413.39 C 931.62 418.63 934.79 421.28 937.95 421.28 L 938.00 421.28 C 942.56 421.23 946.75 415.54 948.00 413.35 C 948.61 412.40 949.85 412.09 950.84 412.64 C 951.82 413.19 952.21 414.41 951.73 415.43 C 951.50 415.83 946.05 425.43 938.08 425.55 Z" fill="#040000" fill-rule="nonzero" node-id="136" stroke="none" target-height="23.940002" target-width="134.0893" target-x="818.12384" target-y="403.18"></path><path d="M 266.84 308.08 C 262.06 308.08 257.66 304.72 253.76 298.08 C 250.68 292.84 247.52 290.08 244.63 290.01 L 244.56 290.01 C 240.92 290.01 237.83 294.31 236.67 296.17 C 234.97 299.05 232.79 301.62 230.22 303.77 C 222.77 309.62 214.87 308.62 208.53 301.01 C 205.39 297.24 202.39 295.32 199.61 295.32 C 196.83 295.32 194.68 297.24 193.34 298.84 C 190.34 302.42 187.45 304.74 184.45 305.94 C 180.16 307.64 173.71 308.30 167.45 301.72 C 164.95 299.10 162.38 297.93 159.88 298.13 C 155.01 298.58 151.27 304.13 151.24 304.13 C 150.93 304.61 150.43 304.95 149.87 305.07 C 149.31 305.18 148.72 305.07 148.24 304.75 C 147.77 304.44 147.44 303.95 147.32 303.40 C 147.21 302.85 147.32 302.27 147.63 301.80 C 147.82 301.50 152.47 294.50 159.44 293.86 C 163.33 293.47 167.05 295.14 170.50 298.74 C 174.24 302.64 178.41 303.74 182.89 301.94 C 185.21 301.02 187.56 299.10 190.08 296.09 C 191.99 293.78 195.21 291.03 199.62 291.03 L 199.62 291.03 C 203.73 291.03 207.83 293.46 211.82 298.24 C 216.74 304.16 221.90 304.86 227.59 300.38 C 229.77 298.54 231.62 296.34 233.06 293.87 C 234.98 290.81 239.01 285.71 244.57 285.71 L 244.70 285.71 C 249.22 285.77 253.51 289.20 257.45 295.89 C 260.53 301.12 263.69 303.78 266.85 303.78 L 266.91 303.78 C 271.47 303.73 275.66 298.03 276.91 295.84 C 277.52 294.89 278.76 294.58 279.75 295.13 C 280.73 295.68 281.12 296.90 280.64 297.92 C 280.41 298.33 274.96 307.92 266.99 308.04 Z" fill="#040000" fill-rule="nonzero" node-id="138" stroke="none" target-height="23.910004" target-width="133.91354" target-x="147.2096" target-y="285.71"></path><path d="M 108.19 972.84 L 108.00 972.84 C 93.24 972.67 82.90 954.42 82.47 953.64 C 81.90 952.61 82.26 951.31 83.29 950.74 C 84.32 950.17 85.62 950.53 86.19 951.56 C 86.29 951.73 95.77 968.44 108.06 968.56 L 108.21 968.56 C 115.37 968.56 122.34 962.88 128.93 951.67 C 136.42 938.94 144.41 932.42 152.68 932.30 L 152.91 932.30 C 163.03 932.30 170.58 941.90 174.19 947.65 C 178.03 953.77 181.78 958.22 185.66 961.27 C 198.01 970.98 209.66 969.43 220.29 956.67 C 227.86 947.57 235.54 942.96 243.11 942.96 C 251.11 942.96 257.05 948.06 260.61 952.33 C 265.89 958.67 270.88 962.71 275.89 964.70 C 285.77 968.63 294.89 966.30 303.10 957.76 C 309.54 951.04 316.41 947.95 323.53 948.62 C 336.53 949.82 345.27 963.03 345.64 963.62 C 346.28 964.61 346.01 965.93 345.02 966.57 C 344.03 967.21 342.71 966.94 342.07 965.95 C 341.99 965.83 334.02 953.89 323.12 952.89 C 317.35 952.33 311.67 955.00 306.18 960.73 C 294.36 973.08 282.32 971.87 274.31 968.73 C 268.62 966.47 263.07 962.02 257.31 955.13 C 254.31 951.55 249.45 947.29 243.09 947.29 C 236.73 947.29 230.27 951.38 223.55 959.46 C 207.30 978.96 191.17 971.10 183.00 964.68 C 178.73 961.33 174.66 956.52 170.55 949.98 C 167.39 944.98 160.85 936.45 152.73 936.63 C 146.04 936.73 139.27 942.54 132.59 953.90 C 125.17 966.46 117.00 972.84 108.19 972.84 Z" fill="#040000" fill-rule="nonzero" node-id="140" stroke="none" target-height="46.660034" target-width="264.3878" target-x="81.89562" target-y="932.3"></path><path d="M 435.12 255.32 L 605.95 255.32 L 605.95 255.32 L 605.95 384.54 C 605.96 407.20 596.97 428.94 580.95 444.97 C 564.92 460.99 543.19 470.00 520.53 470.00 L 520.53 470.00 C 473.35 470.00 435.11 431.76 435.11 384.58 L 435.11 255.32 L 435.11 255.32 Z" fill="#ffffff" fill-rule="nonzero" node-id="142" stroke="none" target-height="214.68" target-width="170.85065" target-x="435.11" target-y="255.32"></path><path d="M 523.45 472.09 L 517.62 472.09 C 470.91 472.02 433.06 434.16 433.00 387.45 L 433.00 255.32 C 433.00 254.75 433.23 254.21 433.63 253.81 C 434.03 253.41 434.57 253.19 435.14 253.19 L 606.00 253.19 C 607.18 253.19 608.13 254.14 608.13 255.32 L 608.13 387.45 C 608.08 434.19 570.19 472.06 523.45 472.09 Z M 437.25 257.46 L 437.25 387.46 C 437.30 431.83 473.25 467.78 517.62 467.83 L 523.45 467.83 C 567.82 467.78 603.77 431.83 603.82 387.46 L 603.82 257.46 Z" fill="#040000" fill-rule="nonzero" node-id="144" stroke="none" target-height="218.90266" target-width="175.13" target-x="433" target-y="253.18733"></path><path d="M 617.31 205.06 C 617.31 230.24 596.90 250.65 571.72 250.65 C 546.54 250.65 526.13 230.24 526.13 205.06 C 526.13 179.88 546.54 159.47 571.72 159.47 C 596.90 159.47 617.31 179.88 617.31 205.06 Z" fill="#ffffff" fill-rule="nonzero" node-id="146" stroke="none" target-height="91.17999" target-width="91.17999" target-x="526.13" target-y="159.47"></path><path d="M 571.72 252.78 C 552.41 252.78 535.01 241.15 527.62 223.31 C 520.24 205.48 524.32 184.95 537.97 171.30 C 551.63 157.65 572.16 153.57 589.99 160.96 C 607.83 168.35 619.45 185.75 619.45 205.06 C 619.42 231.41 598.07 252.75 571.72 252.78 Z M 571.72 161.60 C 547.72 161.60 528.26 181.06 528.26 205.06 C 528.26 229.06 547.72 248.52 571.72 248.52 C 595.72 248.52 615.18 229.06 615.18 205.06 C 615.15 181.07 595.71 161.63 571.72 161.60 Z" fill="#231815" fill-rule="nonzero" node-id="148" stroke="none" target-height="99.21475" target-width="99.21887" target-x="520.23517" target-y="153.56525"></path><path d="M 603.80 184.00 C 603.66 184.01 603.52 184.01 603.38 184.00 C 602.23 183.77 601.48 182.65 601.71 181.50 C 601.78 181.12 603.59 172.32 610.71 168.61 C 615.06 166.32 620.32 166.48 626.34 169.10 C 627.42 169.57 627.92 170.82 627.45 171.90 C 626.97 172.97 625.72 173.47 624.64 173.01 C 619.88 170.94 615.86 170.73 612.71 172.37 C 607.44 175.12 605.94 182.26 605.92 182.37 C 605.68 183.34 604.80 184.02 603.80 184.00 Z" fill="#231815" fill-rule="nonzero" node-id="150" stroke="none" target-height="17.703232" target-width="26.43335" target-x="601.4832" target-y="166.32"></path><path d="M 588.38 177.58 C 587.52 177.58 586.74 177.06 586.40 176.27 C 586.07 175.47 586.26 174.55 586.87 173.94 C 594.33 166.48 586.87 146.12 583.37 138.94 C 582.94 137.90 583.40 136.70 584.41 136.20 C 585.43 135.71 586.65 136.09 587.21 137.07 C 587.78 138.25 601.01 165.86 589.89 176.99 C 589.48 177.38 588.94 177.59 588.38 177.58 Z" fill="#231815" fill-rule="nonzero" node-id="152" stroke="none" target-height="41.87709" target-width="18.067749" target-x="582.94226" target-y="135.71082"></path><path d="M 626.87 225.44 C 626.94 224.67 626.99 223.89 626.99 223.10 C 626.99 208.27 614.18 196.25 598.37 196.25 C 594.59 196.24 590.83 196.95 587.31 198.33 C 578.62 189.87 565.57 184.49 550.98 184.49 C 535.98 184.49 522.57 190.21 513.89 199.11 C 506.02 191.97 495.76 188.05 485.13 188.11 C 468.20 188.11 453.67 197.71 447.35 211.41 C 443.49 209.75 439.33 208.89 435.12 208.89 C 418.96 208.89 405.59 221.25 403.01 237.44 C 391.42 242.66 383.48 253.23 383.48 265.44 C 383.48 279.50 393.99 291.44 408.48 295.44 C 413.18 307.96 424.55 316.76 437.85 318.16 C 451.15 319.57 464.10 313.35 471.32 302.09 C 486.86 311.96 507.15 309.84 520.32 296.98 C 527.83 307.76 539.74 314.76 553.19 314.76 C 563.61 314.69 573.57 310.51 580.91 303.11 C 588.58 307.56 597.30 309.89 606.17 309.87 C 632.58 309.87 653.98 289.98 653.98 265.44 C 653.94 247.80 642.87 232.62 626.87 225.44 Z" fill="#040000" fill-rule="nonzero" node-id="154" stroke="none" target-height="135.08247" target-width="270.49997" target-x="383.48" target-y="184.49"></path><path d="M 412.00 297.06 C 412.00 297.06 424.80 331.19 420.54 339.73 C 420.54 339.73 424.80 335.46 433.34 339.73 L 433.34 309.86 Z" fill="#040000" fill-rule="nonzero" node-id="156" stroke="none" target-height="42.670013" target-width="21.339996" target-x="412" target-y="297.06"></path><path d="M 625.31 297.06 C 625.31 297.06 612.51 331.19 616.77 339.73 C 616.77 339.73 612.51 335.46 603.97 339.73 L 603.97 309.86 Z" fill="#040000" fill-rule="nonzero" node-id="158" stroke="none" target-height="42.670013" target-width="21.340027" target-x="603.97" target-y="297.06"></path><path d="M 484.00 385.36 C 480.71 385.35 477.44 384.73 474.38 383.52 C 467.92 380.97 462.74 375.95 460.00 369.57 C 455.30 358.73 460.26 346.12 471.09 341.39 C 479.98 337.53 490.33 341.60 494.20 350.49 C 497.38 357.82 494.03 366.35 486.70 369.54 C 483.78 370.81 480.47 370.87 477.51 369.70 C 474.54 368.53 472.17 366.23 470.90 363.31 C 469.83 360.87 469.78 358.11 470.76 355.63 C 471.73 353.16 473.66 351.17 476.10 350.12 C 478.15 349.22 480.48 349.18 482.57 350.00 C 484.65 350.82 486.33 352.43 487.22 354.49 C 487.69 355.57 487.19 356.83 486.12 357.30 C 485.04 357.76 483.78 357.27 483.31 356.19 C 482.87 355.17 482.04 354.37 481.00 353.97 C 479.97 353.56 478.82 353.58 477.80 354.03 C 474.89 355.30 473.54 358.69 474.80 361.61 C 476.51 365.52 481.07 367.31 484.99 365.61 C 490.15 363.36 492.52 357.35 490.28 352.18 C 487.35 345.45 479.52 342.37 472.79 345.29 C 464.11 349.08 460.14 359.17 463.90 367.86 C 468.75 378.97 481.68 384.06 492.81 379.24 C 493.87 378.85 495.06 379.36 495.51 380.40 C 495.96 381.44 495.52 382.65 494.51 383.16 C 491.20 384.61 487.62 385.36 484.00 385.36 Z" fill="#040000" fill-rule="nonzero" node-id="160" stroke="none" target-height="47.835266" target-width="42.085175" target-x="455.29636" target-y="337.52573"></path><path d="M 569.31 385.34 C 558.85 385.35 549.39 379.15 545.21 369.57 C 540.51 358.72 545.47 346.12 556.31 341.39 C 560.58 339.53 565.41 339.44 569.75 341.15 C 574.08 342.86 577.56 346.22 579.41 350.49 C 580.95 354.01 581.02 358.00 579.61 361.57 C 578.20 365.14 575.43 368.01 571.91 369.54 C 568.99 370.81 565.69 370.86 562.72 369.70 C 559.76 368.53 557.39 366.23 556.12 363.31 C 555.05 360.87 555.00 358.11 555.97 355.64 C 556.95 353.16 558.87 351.18 561.31 350.12 C 563.36 349.22 565.69 349.18 567.78 350.00 C 569.86 350.82 571.54 352.43 572.43 354.49 C 572.90 355.57 572.40 356.83 571.33 357.30 C 570.25 357.76 568.99 357.27 568.52 356.19 C 568.08 355.16 567.26 354.35 566.22 353.94 C 565.18 353.53 564.02 353.55 563.00 354.00 C 561.60 354.61 560.49 355.75 559.93 357.17 C 559.37 358.59 559.39 360.18 560.00 361.58 C 561.71 365.49 566.26 367.28 570.18 365.58 C 572.66 364.50 574.62 362.48 575.61 359.96 C 576.60 357.44 576.55 354.63 575.47 352.15 C 572.53 345.44 564.72 342.38 558.00 345.30 C 549.32 349.09 545.35 359.18 549.11 367.87 C 553.96 378.97 566.88 384.06 578.00 379.25 C 578.71 378.89 579.56 378.96 580.21 379.42 C 580.85 379.88 581.19 380.66 581.09 381.45 C 580.98 382.23 580.45 382.90 579.70 383.17 C 576.42 384.59 572.89 385.33 569.31 385.34 Z" fill="#040000" fill-rule="nonzero" node-id="162" stroke="none" target-height="45.90518" target-width="40.68347" target-x="540.50757" target-y="339.44263"></path><path d="M 542.12 412.42 L 498.94 412.42 C 497.76 412.42 496.81 411.47 496.81 410.29 C 496.81 409.11 497.76 408.16 498.94 408.16 L 542.12 408.16 C 543.30 408.16 544.25 409.11 544.25 410.29 C 544.25 411.47 543.30 412.42 542.12 412.42 Z" fill="#040000" fill-rule="nonzero" node-id="164" stroke="none" target-height="4.26001" target-width="47.440002" target-x="496.81" target-y="408.16"></path><path d="M 839.56 233.94 C 862.33 250.10 905.23 210.14 914.84 249.94 C 924.45 289.74 860.38 289.74 844.37 282.94 C 828.92 276.38 809.76 332.72 747.37 294.43 C 742.85 291.63 737.36 290.88 732.26 292.36 C 717.34 296.76 686.39 303.29 683.36 282.94 C 683.36 282.94 676.50 264.74 701.52 262.03 C 705.70 261.57 709.64 259.81 712.77 257.00 C 722.20 248.53 734.68 244.27 747.32 245.23 C 754.82 245.87 762.21 243.15 767.51 237.81 C 779.35 225.51 804.31 208.94 839.56 233.94 Z" fill="#ffffff" fill-rule="nonzero" node-id="166" stroke="none" target-height="123.78" target-width="247.95001" target-x="676.5" target-y="208.94"></path><path d="M 787.73 310.09 C 776.40 310.09 762.81 306.41 746.28 296.26 C 742.28 293.78 737.41 293.11 732.89 294.42 C 721.29 297.84 700.13 302.49 688.80 295.26 C 684.67 292.64 681.92 288.32 681.31 283.47 C 680.85 282.11 678.89 275.36 682.65 269.24 C 685.85 264.05 692.13 260.92 701.32 259.92 C 705.05 259.48 708.54 257.89 711.32 255.37 C 721.20 246.54 734.23 242.10 747.44 243.06 C 754.32 243.67 761.12 241.19 766.00 236.29 C 778.23 223.62 804.23 206.29 840.81 232.20 L 840.81 232.20 C 849.51 238.38 862.05 235.47 874.17 232.67 C 891.35 228.67 910.83 224.17 916.93 249.45 C 919.65 260.74 916.93 270.27 908.93 277.02 C 891.49 291.80 854.93 289.76 843.55 284.91 C 839.84 283.35 834.92 287.29 828.69 292.29 C 819.11 300.00 806.51 310.09 787.73 310.09 Z M 737.49 289.49 C 741.37 289.50 745.18 290.59 748.49 292.62 C 789.86 318.00 811.60 300.53 826.00 289.00 C 833.35 283.10 839.15 278.43 845.21 281.00 C 855.58 285.39 890.21 287.27 906.16 273.78 C 912.91 268.06 915.16 260.21 912.78 250.46 C 907.67 229.29 892.59 232.78 875.13 236.83 C 862.13 239.83 848.61 242.98 838.34 235.69 L 838.34 235.69 C 804.34 211.58 780.34 227.58 769.05 239.26 C 763.32 245.06 755.31 248.01 747.18 247.33 C 735.11 246.43 723.19 250.48 714.18 258.56 C 710.73 261.68 706.39 263.65 701.77 264.18 C 693.98 265.02 688.77 267.47 686.30 271.46 C 683.30 276.34 685.36 282.15 685.38 282.21 C 685.43 282.35 685.47 282.50 685.49 282.65 C 685.89 286.35 687.95 289.66 691.09 291.65 C 698.32 296.26 713.09 295.77 731.68 290.31 C 733.57 289.76 735.52 289.48 737.49 289.49 Z" fill="#040000" fill-rule="nonzero" node-id="168" stroke="none" target-height="111.71001" target-width="240.76001" target-x="678.89" target-y="206.29"></path><path d="M 191.93 176.26 C 207.81 187.53 237.72 159.67 244.42 187.43 C 251.12 215.19 206.42 215.18 195.28 210.43 C 184.51 205.86 171.15 245.14 127.67 218.43 C 124.52 216.48 120.69 215.96 117.13 217.00 C 106.72 220.06 85.13 224.61 83.03 210.42 C 83.03 210.42 78.25 197.73 95.70 195.85 C 98.61 195.51 101.34 194.27 103.52 192.30 C 110.09 186.39 118.80 183.43 127.61 184.09 C 132.84 184.54 138.00 182.65 141.69 178.92 C 149.94 170.38 167.35 158.83 191.93 176.26 Z" fill="#ffffff" fill-rule="nonzero" node-id="170" stroke="none" target-height="86.31" target-width="172.87" target-x="78.25" target-y="158.83"></path><path d="M 155.68 229.89 C 147.68 229.89 138.07 227.34 126.55 220.27 C 123.91 218.64 120.71 218.20 117.73 219.05 C 107.73 222.00 94.16 224.48 86.45 219.56 C 83.46 217.65 81.46 214.52 81.00 211.00 C 80.63 209.86 79.30 205.00 82.00 200.59 C 84.33 196.79 88.87 194.50 95.50 193.79 C 97.97 193.50 100.28 192.45 102.13 190.79 C 109.13 184.50 118.38 181.33 127.76 182.00 C 132.35 182.39 136.89 180.74 140.15 177.48 C 148.83 168.48 167.26 156.18 193.15 174.55 L 193.15 174.55 C 198.98 178.69 207.58 176.70 215.89 174.77 C 228.16 171.92 242.08 168.70 246.48 186.96 C 248.48 195.08 246.48 201.96 240.69 206.82 C 228.34 217.29 202.50 215.82 194.43 212.43 C 192.19 211.43 188.89 214.13 184.72 217.49 C 178.34 222.59 169.25 229.89 155.68 229.89 Z M 120.75 214.35 C 123.58 214.36 126.34 215.15 128.75 216.63 C 157.18 234.08 171.54 222.55 182.03 214.13 C 187.11 210.04 191.50 206.53 196.08 208.47 C 203.00 211.41 227.18 212.62 237.91 203.54 C 242.48 199.67 243.91 194.54 242.32 187.93 C 239.07 174.47 230.52 175.74 216.84 178.93 C 207.60 181.07 198.06 183.28 190.66 178.03 C 167.36 161.50 150.92 172.45 143.19 180.45 C 139.06 184.63 133.29 186.76 127.43 186.26 C 119.19 185.64 111.06 188.42 104.91 193.94 C 102.41 196.20 99.26 197.62 95.91 198.01 C 90.70 198.57 87.23 200.17 85.61 202.77 C 83.61 205.90 85.01 209.69 85.02 209.72 C 85.07 209.86 85.11 210.00 85.13 210.15 C 85.38 212.55 86.71 214.71 88.75 216.00 C 93.64 219.12 103.75 218.75 116.53 215.00 C 117.90 214.58 119.32 214.36 120.75 214.35 Z" fill="#040000" fill-rule="nonzero" node-id="172" stroke="none" target-height="77.90001" target-width="169.18" target-x="79.3" target-y="156.18"></path><path d="M 359.43 214.64 C 359.03 214.64 358.65 214.53 358.31 214.32 L 299.45 177.94 C 298.45 177.32 298.14 176.01 298.75 175.00 C 299.37 174.00 300.69 173.69 301.69 174.31 L 360.55 210.69 C 361.37 211.19 361.75 212.17 361.49 213.09 C 361.23 214.01 360.39 214.65 359.43 214.64 Z" fill="#040000" fill-rule="nonzero" node-id="174" stroke="none" target-height="40.954636" target-width="63.617493" target-x="298.13644" target-y="173.69144"></path><path d="M 371.45 199.64 C 370.64 199.64 369.89 199.18 369.53 198.45 L 346.70 152.00 C 346.18 150.94 346.62 149.66 347.68 149.15 C 348.73 148.63 350.01 149.06 350.53 150.12 L 373.36 196.58 C 373.68 197.24 373.65 198.02 373.26 198.65 C 372.87 199.27 372.19 199.65 371.45 199.65 Z" fill="#040000" fill-rule="nonzero" node-id="176" stroke="none" target-height="51.02414" target-width="27.503723" target-x="346.18085" target-y="148.62585"></path><path d="M 348.62 227.27 L 308.43 227.27 C 307.31 227.19 306.44 226.26 306.44 225.13 C 306.44 224.01 307.31 223.08 308.43 223.00 L 348.62 223.00 C 349.74 223.08 350.61 224.01 350.61 225.13 C 350.61 226.26 349.74 227.19 348.62 227.27 Z" fill="#040000" fill-rule="nonzero" node-id="178" stroke="none" target-height="4.2700043" target-width="44.177612" target-x="306.4362" target-y="223"></path><path d="M 406.28 321.31 C 399.41 321.41 393.36 325.85 391.20 332.37 C 390.32 334.98 394.44 336.10 395.31 333.51 C 396.93 328.80 401.33 325.62 406.31 325.57 C 409.06 325.57 409.06 321.26 406.31 321.31 Z" fill="#040000" fill-rule="nonzero" node-id="180" stroke="none" target-height="14.839996" target-width="18.73999" target-x="390.32" target-y="321.26"></path><path d="M 383.05 343.52 C 376.40 343.85 369.95 345.95 364.37 349.59 C 362.07 351.09 364.21 354.78 366.52 353.27 C 371.44 350.01 377.15 348.11 383.05 347.79 C 385.78 347.64 385.80 343.37 383.05 343.52 Z" fill="#040000" fill-rule="nonzero" node-id="182" stroke="none" target-height="11.410004" target-width="23.72998" target-x="362.07" target-y="343.37"></path><path d="M 338.13 374.00 C 342.12 370.18 346.35 366.64 350.81 363.38 C 353.00 361.77 350.88 358.07 348.66 359.69 C 343.90 363.16 339.38 366.93 335.12 371.00 C 333.12 372.90 336.12 375.92 338.12 374.00 Z" fill="#040000" fill-rule="nonzero" node-id="184" stroke="none" target-height="17.850006" target-width="19.880005" target-x="333.12" target-y="358.07"></path><path d="M 314.00 400.28 L 323.65 390.11 C 325.54 388.11 322.52 385.11 320.65 387.11 L 311.00 397.27 C 309.11 399.27 312.12 402.27 314.00 400.27 Z" fill="#040000" fill-rule="nonzero" node-id="186" stroke="none" target-height="17.160004" target-width="16.430023" target-x="309.11" target-y="385.11"></path><path d="M 615.39 323.83 C 620.57 324.92 625.40 327.28 629.45 330.68 C 631.54 332.43 634.57 329.43 632.45 327.68 C 627.87 323.77 622.39 321.04 616.51 319.74 C 613.83 319.15 612.69 323.26 615.37 323.85 Z" fill="#040000" fill-rule="nonzero" node-id="188" stroke="none" target-height="13.279999" target-width="21.880005" target-x="612.69" target-y="319.15"></path><path d="M 635.89 340.44 L 642.69 348.08 C 644.52 350.14 647.53 347.08 645.69 345.08 L 638.89 337.43 C 637.06 335.38 634.05 338.43 635.89 340.43 Z" fill="#040000" fill-rule="nonzero" node-id="190" stroke="none" target-height="14.76001" target-width="13.4800415" target-x="634.05" target-y="335.38"></path><path d="M 653.78 354.73 C 660.22 356.46 666.51 358.75 672.56 361.55 C 675.04 362.69 677.21 359.02 674.72 357.86 C 668.33 354.89 661.71 352.47 654.91 350.62 C 652.26 349.90 651.12 354.02 653.78 354.73 Z" fill="#040000" fill-rule="nonzero" node-id="192" stroke="none" target-height="12.790009" target-width="26.090027" target-x="651.12" target-y="349.9"></path><path d="M 686.22 367.91 C 693.77 371.17 700.70 375.73 706.69 381.37 C 708.69 383.25 711.69 380.24 709.69 378.37 C 703.45 372.46 696.23 367.68 688.35 364.25 C 685.86 363.17 683.68 366.84 686.20 367.93 Z" fill="#040000" fill-rule="nonzero" node-id="194" stroke="none" target-height="20.079987" target-width="28.01001" target-x="683.68" target-y="363.17"></path><path d="M 719.52 393.79 C 724.15 397.93 728.25 402.63 731.72 407.79 C 733.24 410.06 736.94 407.92 735.41 405.63 C 731.75 400.15 727.43 395.15 722.53 390.74 C 720.53 388.91 717.47 391.92 719.53 393.74 Z" fill="#040000" fill-rule="nonzero" node-id="196" stroke="none" target-height="21.149994" target-width="19.470032" target-x="717.47" target-y="388.91"></path><path d="M 739.19 422.74 C 741.34 425.29 743.16 428.10 744.61 431.10 C 745.81 433.57 749.49 431.41 748.29 428.95 C 746.66 425.63 744.62 422.53 742.21 419.73 C 740.43 417.63 737.42 420.66 739.21 422.73 Z" fill="#040000" fill-rule="nonzero" node-id="198" stroke="none" target-height="15.940002" target-width="12.070007" target-x="737.42" target-y="417.63"></path><path d="M 264.41 642.53 L 264.41 689.23 L 129.85 689.23 L 129.85 748.87 L 199.94 748.87 C 213.60 748.87 224.46 749.92 232.51 752.01 C 240.20 753.92 247.29 757.70 253.17 763.01 C 268.59 776.88 276.30 797.16 276.31 823.83 C 276.31 857.58 264.41 881.00 240.61 894.07 C 228.04 900.88 207.76 904.28 179.78 904.27 L 83.24 904.27 L 83.24 858.00 L 179.78 858.00 C 193.00 858.00 203.14 856.69 210.19 854.07 C 214.75 852.10 218.45 848.55 220.60 844.07 C 223.24 838.78 224.55 832.92 224.41 827.00 C 224.57 820.41 223.09 813.88 220.11 808.00 C 217.24 802.67 213.49 799.20 208.87 797.60 C 205.12 796.27 195.43 795.48 179.78 795.24 L 83.24 795.24 L 83.24 642.53 Z" fill="#231815" fill-rule="nonzero" node-id="200" stroke="none" target-height="261.7533" target-width="193.07" target-x="83.24" target-y="642.53"></path><path d="M 798.93 858.00 L 943.08 858.00 L 943.08 904.30 L 752.32 904.30 L 752.32 834.81 C 751.87 805.51 758.04 783.14 770.83 767.71 C 776.78 760.91 783.28 756.33 790.34 753.97 C 797.40 751.61 808.42 750.43 823.40 750.44 L 859.40 750.44 C 871.52 750.44 880.12 748.74 885.19 745.34 C 893.13 739.85 897.10 731.74 897.09 721.01 C 897.09 709.24 893.45 700.61 886.18 695.12 C 880.67 691.19 871.75 689.23 859.40 689.23 L 755.62 689.23 L 755.62 642.53 L 869.35 642.53 C 897.56 642.53 917.17 648.16 928.20 659.41 C 934.81 665.69 939.88 674.13 943.41 684.72 C 947.01 695.80 948.80 707.40 948.70 719.05 C 948.70 734.22 946.50 747.63 942.09 759.27 C 937.68 770.91 931.62 779.49 923.90 785.00 C 912.44 793.11 895.25 797.16 872.33 797.17 L 841.25 797.17 C 830.23 797.17 822.02 797.95 816.62 799.52 C 811.66 800.78 807.35 803.86 804.55 808.15 C 801.03 812.34 799.16 821.23 798.93 834.84 Z" fill="#231815" fill-rule="nonzero" node-id="202" stroke="none" target-height="261.76996" target-width="196.92981" target-x="751.86664" target-y="642.53"></path><path d="M 514.14 641.36 C 555.58 641.36 584.89 654.44 602.08 680.59 C 616.63 702.83 623.90 733.83 623.90 773.59 C 623.90 820.92 614.31 855.46 595.14 877.19 C 577.73 896.28 552.73 905.82 520.14 905.83 C 476.50 905.83 445.42 891.57 426.91 863.06 C 413.25 841.61 406.42 811.53 406.42 772.81 C 406.42 728.07 415.18 695.04 432.70 673.73 C 450.22 652.42 477.37 641.63 514.14 641.36 Z M 513.14 684.91 C 503.61 684.80 494.25 687.46 486.20 692.57 C 478.10 697.74 471.71 705.20 467.86 714.00 C 464.99 719.76 462.62 728.07 460.75 738.92 C 458.92 749.35 457.98 759.91 457.94 770.50 C 457.95 782.34 458.95 794.15 460.94 805.82 C 462.94 817.59 465.36 826.74 468.21 833.29 C 476.81 852.39 493.34 861.94 517.80 861.93 C 531.24 861.93 541.60 858.66 548.88 852.12 C 559.01 843.23 565.62 830.02 568.71 812.49 C 571.13 798.89 572.35 785.10 572.35 771.29 C 572.42 758.69 571.08 746.12 568.35 733.82 C 565.68 722.18 562.16 713.09 557.77 706.54 C 553.12 699.78 546.73 694.41 539.27 691.00 C 531.09 687.15 522.19 685.08 513.15 684.91 Z" fill="#231815" fill-rule="nonzero" node-id="204" stroke="none" target-height="264.47003" target-width="217.48001" target-x="406.42" target-y="641.36"></path><path d="M 201.91 464.75 C 201.91 475.28 193.37 483.82 182.84 483.82 C 172.31 483.82 163.77 475.28 163.77 464.75 C 163.77 454.22 172.31 445.68 182.84 445.68 C 193.37 445.68 201.91 454.22 201.91 464.75 Z" fill="#ffffff" fill-rule="nonzero" node-id="206" stroke="none" target-height="38.140015" target-width="38.14" target-x="163.77" target-y="445.68"></path><path d="M 182.84 486.00 C 174.26 486.02 166.51 480.87 163.21 472.95 C 159.91 465.03 161.71 455.90 167.76 449.82 C 173.81 443.74 182.93 441.91 190.87 445.18 C 198.80 448.45 203.98 456.17 204.00 464.75 C 204.01 476.46 194.55 485.96 182.84 486.00 Z M 182.84 447.85 C 173.48 447.85 165.90 455.43 165.90 464.79 C 165.90 474.15 173.48 481.73 182.84 481.73 C 192.20 481.73 199.78 474.15 199.78 464.79 C 199.77 455.43 192.20 447.84 182.84 447.81 Z" fill="#231815" fill-rule="nonzero" node-id="208" stroke="none" target-height="44.109222" target-width="44.099304" target-x="159.91179" target-y="441.91098"></path><path d="M 834.71 602.09 C 820.22 602.09 803.30 598.47 790.00 585.17 C 760.89 556.06 779.93 508.34 780.13 507.86 L 784.13 509.47 C 783.94 509.92 765.97 555.06 793.07 582.15 C 820.17 609.24 864.07 593.07 864.48 592.90 L 866.00 596.90 C 855.92 600.31 845.35 602.06 834.71 602.09 Z" fill="#040000" fill-rule="nonzero" node-id="210" stroke="none" target-height="101.380005" target-width="105.109985" target-x="760.89" target-y="507.86"></path><path d="M 791.71 559.00 C 791.14 559.00 790.60 558.78 790.20 558.37 C 788.34 556.45 786.88 554.19 785.88 551.71 C 785.51 550.64 786.03 549.47 787.08 549.04 C 788.12 548.60 789.32 549.05 789.82 550.06 C 790.60 552.03 791.75 553.83 793.22 555.35 C 793.83 555.96 794.01 556.88 793.68 557.68 C 793.35 558.48 792.57 559.00 791.71 559.00 Z M 785.19 540.55 C 784.06 540.55 783.13 539.67 783.07 538.55 C 782.95 536.88 782.90 535.26 782.90 533.77 C 782.89 530.95 783.05 528.13 783.39 525.33 C 783.55 524.16 784.63 523.34 785.79 523.50 C 786.96 523.67 787.78 524.74 787.62 525.91 C 787.31 528.52 787.16 531.14 787.17 533.77 C 787.17 535.17 787.17 536.69 787.32 538.25 C 787.36 538.82 787.17 539.38 786.80 539.81 C 786.42 540.24 785.89 540.50 785.32 540.53 Z" fill="#040000" fill-rule="nonzero" node-id="212" stroke="none" target-height="35.65796" target-width="11.122437" target-x="782.88873" target-y="523.34485"></path><path d="M 832.78 588.29 L 832.63 588.29 C 828.20 587.98 823.84 587.11 819.63 585.70 C 818.82 585.54 818.18 584.92 817.98 584.12 C 817.79 583.31 818.07 582.47 818.72 581.95 C 819.36 581.43 820.25 581.34 820.99 581.70 C 824.87 583.00 828.91 583.79 832.99 584.07 C 834.17 584.11 835.09 585.10 835.04 586.27 C 835.00 587.45 834.02 588.37 832.84 588.33 Z M 808.84 580.12 C 808.41 580.12 807.99 579.99 807.64 579.74 C 803.84 577.23 800.50 574.10 797.76 570.47 C 797.09 569.50 797.34 568.17 798.31 567.51 C 799.27 566.84 800.60 567.08 801.27 568.05 C 803.73 571.23 806.70 573.99 810.05 576.22 C 810.82 576.75 811.15 577.72 810.88 578.61 C 810.60 579.51 809.77 580.12 808.84 580.12 Z" fill="#040000" fill-rule="nonzero" node-id="214" stroke="none" target-height="21.534668" target-width="37.99469" target-x="797.09174" target-y="566.83673"></path><path d="M 414.91 356.19 C 414.91 356.19 430.31 352.83 435.12 362.64" fill="#ffffff" fill-rule="nonzero" node-id="216" stroke="none" target-height="9.810028" target-width="20.209991" target-x="414.91" target-y="352.83"></path><path d="M 435.12 364.77 C 434.30 364.78 433.56 364.31 433.20 363.58 C 429.20 355.37 415.50 358.24 415.36 358.27 C 414.23 358.49 413.13 357.76 412.88 356.63 C 412.64 355.51 413.33 354.39 414.45 354.11 C 415.14 353.96 431.55 350.52 437.03 361.70 C 437.28 362.21 437.31 362.80 437.12 363.34 C 436.94 363.87 436.54 364.31 436.03 364.56 C 435.75 364.69 435.43 364.77 435.12 364.77 Z" fill="#040000" fill-rule="nonzero" node-id="218" stroke="none" target-height="14.255737" target-width="24.675537" target-x="412.6353" target-y="350.52"></path><path d="M 626.17 356.09 C 626.17 356.09 610.76 352.73 605.96 362.54" fill="#ffffff" fill-rule="nonzero" node-id="220" stroke="none" target-height="9.809998" target-width="20.20996" target-x="605.96" target-y="352.73"></path><path d="M 606.00 364.67 C 605.67 364.67 605.35 364.60 605.06 364.45 C 604.55 364.21 604.16 363.77 603.97 363.23 C 603.78 362.70 603.81 362.11 604.06 361.60 C 609.54 350.41 625.95 353.85 626.64 354.00 C 627.79 354.25 628.52 355.39 628.27 356.54 C 628.02 357.69 626.88 358.42 625.73 358.17 C 625.60 358.17 611.90 355.29 607.90 363.47 C 607.54 364.20 606.81 364.66 606.00 364.67 Z" fill="#040000" fill-rule="nonzero" node-id="222" stroke="none" target-height="14.261017" target-width="24.741516" target-x="603.7798" target-y="350.41"></path><path d="M 0.00 0.00 L 1024.00 0.00 L 1024.00 1024.00 L 0.00 1024.00 Z" fill="none" node-id="224" stroke="none" target-height="1024" target-width="1024" target-x="0" target-y="0"></path></svg>