<?xml version="1.0" standalone="no"?><!DOCTYPE svg PUBLIC "-//W3C//DTD SVG 1.1//EN" "http://www.w3.org/Graphics/SVG/1.1/DTD/svg11.dtd"><svg t="1709272384237" class="icon" viewBox="0 0 1024 1024" version="1.1" xmlns="http://www.w3.org/2000/svg" p-id="3099" xmlns:xlink="http://www.w3.org/1999/xlink" width="200" height="200"><path d="M1003.52 634.90048h-61.35808v61.35808H1003.52v-61.35808zM1003.52 573.3376h-61.35808v61.56288H1003.52v-61.56288z" fill="#000000" p-id="3100"></path><path d="M1003.52 512h-61.35808v61.35808H1003.52V512zM942.16192 819.15904h-61.56288v61.37856h61.56288v-61.35808z" fill="#000000" p-id="3101"></path><path d="M942.16192 757.82144h-61.56288v61.35808h61.56288v-61.35808zM942.16192 696.25856h-61.56288v61.56288h61.56288v-61.56288z" fill="#000000" p-id="3102"></path><path d="M942.16192 634.90048h-61.56288v61.35808h61.56288v-61.35808zM942.16192 573.3376h-61.56288v61.56288h61.56288v-61.56288z" fill="#AA6100" p-id="3103"></path><path d="M942.16192 512h-61.56288v61.35808h61.56288V512z" fill="#AA6100" p-id="3104"></path><path d="M942.16192 450.64192h-61.56288V512h61.56288v-61.35808z" fill="#000000" p-id="3105"></path><path d="M942.16192 389.07904h-61.56288v61.58336h61.56288v-61.56288z" fill="#000000" p-id="3106"></path><path d="M942.16192 327.74144h-61.56288v61.35808h61.56288v-61.35808zM942.16192 266.17856h-61.56288v61.56288h61.56288v-61.56288zM880.59904 880.51712H819.2V942.08h61.37856v-61.56288z" fill="#000000" p-id="3107"></path><path d="M880.59904 819.15904H819.2v61.37856h61.37856v-61.35808z" fill="#FFA733" p-id="3108"></path><path d="M880.59904 757.82144H819.2v61.35808h61.37856v-61.35808z" fill="#FFA733" p-id="3109"></path><path d="M880.59904 696.25856H819.2v61.56288h61.37856v-61.56288z" fill="#000000" p-id="3110"></path><path d="M880.59904 634.90048H819.2v61.35808h61.37856v-61.35808zM880.59904 573.3376H819.2v61.56288h61.37856v-61.56288z" fill="#AA6100" p-id="3111"></path><path d="M880.59904 512H819.2v61.35808h61.37856V512z" fill="#AA6100" p-id="3112"></path><path d="M880.59904 450.64192H819.2V512h61.37856v-61.35808z" fill="#000000" p-id="3113"></path><path d="M880.59904 389.07904H819.2v61.58336h61.37856v-61.56288z" fill="#FFA733" p-id="3114"></path><path d="M880.59904 327.74144H819.2v61.35808h61.37856v-61.35808zM880.59904 266.17856H819.2v61.56288h61.37856v-61.56288z" fill="#FFA733" p-id="3115"></path><path d="M880.59904 204.84096H819.2v61.35808h61.37856v-61.35808zM819.22048 880.51712h-61.35808V942.08h61.35808v-61.56288z" fill="#000000" p-id="3116"></path><path d="M819.22048 819.15904h-61.35808v61.37856h61.35808v-61.35808z" fill="#FFA733" p-id="3117"></path><path d="M819.22048 757.82144h-61.35808v61.35808h61.35808v-61.35808z" fill="#FFA733" p-id="3118"></path><path d="M819.22048 696.25856h-61.35808v61.56288h61.35808v-61.56288z" fill="#000000" p-id="3119"></path><path d="M819.22048 634.90048h-61.35808v61.35808h61.35808v-61.35808zM819.22048 573.3376h-61.35808v61.56288h61.35808v-61.56288z" fill="#AA6100" p-id="3120"></path><path d="M819.22048 512h-61.35808v61.35808h61.35808V512z" fill="#AA6100" p-id="3121"></path><path d="M819.22048 450.64192h-61.35808V512h61.35808v-61.35808z" fill="#000000" p-id="3122"></path><path d="M819.22048 389.07904h-61.35808v61.58336h61.35808v-61.56288z" fill="#FFA733" p-id="3123"></path><path d="M819.22048 327.74144h-61.35808v61.35808h61.35808v-61.35808zM819.22048 266.17856h-61.35808v61.56288h61.35808v-61.56288z" fill="#FFA733" p-id="3124"></path><path d="M819.22048 204.84096h-61.35808v61.35808h61.35808v-61.35808z" fill="#FFA733" p-id="3125"></path><path d="M819.22048 143.48288h-61.35808v61.35808h61.35808V143.48288zM757.8624 880.51712h-61.56288V942.08h61.56288v-61.56288z" fill="#000000" p-id="3126"></path><path d="M757.8624 819.15904h-61.56288v61.37856h61.56288v-61.35808z" fill="#FFA733" p-id="3127"></path><path d="M757.8624 757.82144h-61.56288v61.35808h61.56288v-61.35808z" fill="#FFA733" p-id="3128"></path><path d="M757.8624 696.25856h-61.56288v61.56288h61.56288v-61.56288z" fill="#000000" p-id="3129"></path><path d="M757.8624 634.90048h-61.56288v61.35808h61.56288v-61.35808zM757.8624 573.3376h-61.56288v61.56288h61.56288v-61.56288z" fill="#AA6100" p-id="3130"></path><path d="M757.8624 512h-61.56288v61.35808h61.56288V512z" fill="#AA6100" p-id="3131"></path><path d="M757.8624 450.64192h-61.56288V512h61.56288v-61.35808z" fill="#000000" p-id="3132"></path><path d="M757.8624 389.07904h-61.56288v61.58336h61.56288v-61.56288z" fill="#FFA733" p-id="3133"></path><path d="M757.8624 327.74144h-61.56288v61.35808h61.56288v-61.35808zM757.8624 266.17856h-61.56288v61.56288h61.56288v-61.56288z" fill="#FFA733" p-id="3134"></path><path d="M757.8624 204.84096h-61.56288v61.35808h61.56288v-61.35808zM757.8624 143.48288h-61.56288v61.35808h61.56288V143.48288z" fill="#FFA733" p-id="3135"></path><path d="M757.8624 81.92h-61.56288v61.56288h61.56288V81.92zM696.29952 880.51712h-61.37856V942.08H696.32v-61.56288z" fill="#000000" p-id="3136"></path><path d="M696.29952 819.15904h-61.37856v61.37856H696.32v-61.35808z" fill="#FFA733" p-id="3137"></path><path d="M696.29952 757.82144h-61.37856v61.35808H696.32v-61.35808z" fill="#FFA733" p-id="3138"></path><path d="M696.29952 696.25856h-61.37856v61.56288H696.32v-61.56288z" fill="#000000" p-id="3139"></path><path d="M696.29952 634.90048h-61.37856v61.35808H696.32v-61.35808zM696.29952 573.3376h-61.37856v61.56288H696.32v-61.56288z" fill="#AA6100" p-id="3140"></path><path d="M696.29952 512h-61.37856v61.35808H696.32V512z" fill="#AA6100" p-id="3141"></path><path d="M696.29952 450.64192h-61.37856V512H696.32v-61.35808z" fill="#000000" p-id="3142"></path><path d="M696.29952 389.07904h-61.37856v61.58336H696.32v-61.56288z" fill="#FFA733" p-id="3143"></path><path d="M696.29952 327.74144h-61.37856v61.35808H696.32v-61.35808zM696.29952 266.17856h-61.37856v61.56288H696.32v-61.56288z" fill="#FFA733" p-id="3144"></path><path d="M696.29952 204.84096h-61.37856v61.35808H696.32v-61.35808z" fill="#000000" p-id="3145"></path><path d="M696.29952 143.48288h-61.37856v61.35808H696.32V143.48288z" fill="#FFA733" p-id="3146"></path><path d="M696.29952 81.92h-61.37856v61.56288H696.32V81.92zM634.92096 880.51712h-61.56288V942.08h61.56288v-61.56288z" fill="#000000" p-id="3147"></path><path d="M634.92096 819.15904h-61.56288v61.37856h61.56288v-61.35808z" fill="#FFA733" p-id="3148"></path><path d="M634.92096 757.82144h-61.56288v61.35808h61.56288v-61.35808z" fill="#FFA733" p-id="3149"></path><path d="M634.92096 696.25856h-61.56288v61.56288h61.56288v-61.56288z" fill="#000000" p-id="3150"></path><path d="M634.92096 634.90048h-61.56288v61.35808h61.56288v-61.35808zM634.92096 573.3376h-61.56288v61.56288h61.56288v-61.56288z" fill="#AA6100" p-id="3151"></path><path d="M634.92096 512h-61.56288v61.35808h61.56288V512z" fill="#AA6100" p-id="3152"></path><path d="M634.92096 450.64192h-61.56288V512h61.56288v-61.35808z" fill="#000000" p-id="3153"></path><path d="M634.92096 389.07904h-61.56288v61.58336h61.56288v-61.56288z" fill="#FFA733" p-id="3154"></path><path d="M634.92096 327.74144h-61.56288v61.35808h61.56288v-61.35808zM634.92096 266.17856h-61.56288v61.56288h61.56288v-61.56288z" fill="#FFA733" p-id="3155"></path><path d="M634.92096 204.84096h-61.56288v61.35808h61.56288v-61.35808zM634.92096 143.48288h-61.56288v61.35808h61.56288V143.48288z" fill="#FFA733" p-id="3156"></path><path d="M634.92096 81.92h-61.56288v61.56288h61.56288V81.92zM573.35808 880.51712H512V942.08h61.35808v-61.56288z" fill="#000000" p-id="3157"></path><path d="M573.35808 819.15904H512v61.37856h61.35808v-61.35808z" fill="#FFA733" p-id="3158"></path><path d="M573.35808 757.82144H512v61.35808h61.35808v-61.35808z" fill="#FFA733" p-id="3159"></path><path d="M573.35808 696.25856H512v61.56288h61.35808v-61.56288z" fill="#000000" p-id="3160"></path><path d="M573.35808 634.90048H512v61.35808h61.35808v-61.35808zM573.35808 573.3376H512v61.56288h61.35808v-61.56288z" fill="#AA6100" p-id="3161"></path><path d="M573.35808 512H512v61.35808h61.35808V512z" fill="#AA6100" p-id="3162"></path><path d="M573.35808 450.64192H512V512h61.35808v-61.35808z" fill="#000000" p-id="3163"></path><path d="M573.35808 389.07904H512v61.58336h61.35808v-61.56288z" fill="#FFA733" p-id="3164"></path><path d="M573.35808 327.74144H512v61.35808h61.35808v-61.35808z" fill="#FFA733" p-id="3165"></path><path d="M573.35808 266.17856H512v61.56288h61.35808v-61.56288z" fill="#000000" p-id="3166"></path><path d="M573.35808 204.84096H512v61.35808h61.35808v-61.35808zM573.35808 143.48288H512v61.35808h61.35808V143.48288z" fill="#FFA733" p-id="3167"></path><path d="M573.35808 81.92H512v61.56288h61.35808V81.92zM512 880.51712h-61.35808V942.08H512v-61.56288z" fill="#000000" p-id="3168"></path><path d="M512 819.15904h-61.35808v61.37856H512v-61.35808z" fill="#FFA733" p-id="3169"></path><path d="M512 757.82144h-61.35808v61.35808H512v-61.35808z" fill="#FFA733" p-id="3170"></path><path d="M512 696.25856h-61.35808v61.56288H512v-61.56288z" fill="#000000" p-id="3171"></path><path d="M512 634.90048h-61.35808v61.35808H512v-61.35808zM512 573.3376h-61.35808v61.56288H512v-61.56288z" fill="#AA6100" p-id="3172"></path><path d="M512 512h-61.35808v61.35808H512V512z" fill="#AA6100" p-id="3173"></path><path d="M512 450.64192h-61.35808V512H512v-61.35808z" fill="#000000" p-id="3174"></path><path d="M512 389.07904h-61.35808v61.58336H512v-61.56288z" fill="#FFA733" p-id="3175"></path><path d="M512 327.74144h-61.35808v61.35808H512v-61.35808z" fill="#FFA733" p-id="3176"></path><path d="M512 266.17856h-61.35808v61.56288H512v-61.56288z" fill="#000000" p-id="3177"></path><path d="M512 204.84096h-61.35808v61.35808H512v-61.35808zM512 143.48288h-61.35808v61.35808H512V143.48288z" fill="#FFA733" p-id="3178"></path><path d="M512 81.92h-61.35808v61.56288H512V81.92zM450.64192 880.51712h-61.56288V942.08h61.56288v-61.56288z" fill="#000000" p-id="3179"></path><path d="M450.64192 819.15904h-61.56288v61.37856h61.56288v-61.35808z" fill="#FFA733" p-id="3180"></path><path d="M450.64192 757.82144h-61.56288v61.35808h61.56288v-61.35808z" fill="#FFA733" p-id="3181"></path><path d="M450.64192 696.25856h-61.56288v61.56288h61.56288v-61.56288z" fill="#000000" p-id="3182"></path><path d="M450.64192 634.90048h-61.56288v61.35808h61.56288v-61.35808zM450.64192 573.3376h-61.56288v61.56288h61.56288v-61.56288z" fill="#AA6100" p-id="3183"></path><path d="M450.64192 512h-61.56288v61.35808h61.56288V512z" fill="#AA6100" p-id="3184"></path><path d="M450.64192 450.64192h-61.56288V512h61.56288v-61.35808z" fill="#000000" p-id="3185"></path><path d="M450.64192 389.07904h-61.56288v61.58336h61.56288v-61.56288z" fill="#FFA733" p-id="3186"></path><path d="M450.64192 327.74144h-61.56288v61.35808h61.56288v-61.35808zM450.64192 266.17856h-61.56288v61.56288h61.56288v-61.56288z" fill="#FFA733" p-id="3187"></path><path d="M450.64192 204.84096h-61.56288v61.35808h61.56288v-61.35808zM450.64192 143.48288h-61.56288v61.35808h61.56288V143.48288z" fill="#FFA733" p-id="3188"></path><path d="M450.64192 81.92h-61.56288v61.56288h61.56288V81.92zM389.05856 880.51712h-61.35808V942.08h61.35808v-61.56288z" fill="#000000" p-id="3189"></path><path d="M389.05856 819.15904h-61.35808v61.37856h61.35808v-61.35808z" fill="#FFA733" p-id="3190"></path><path d="M389.05856 757.82144h-61.35808v61.35808h61.35808v-61.35808z" fill="#FFA733" p-id="3191"></path><path d="M389.05856 696.25856h-61.35808v61.56288h61.35808v-61.56288z" fill="#000000" p-id="3192"></path><path d="M389.05856 634.90048h-61.35808v61.35808h61.35808v-61.35808zM389.05856 573.3376h-61.35808v61.56288h61.35808v-61.56288z" fill="#AA6100" p-id="3193"></path><path d="M389.05856 512h-61.35808v61.35808h61.35808V512z" fill="#AA6100" p-id="3194"></path><path d="M389.05856 450.64192h-61.35808V512h61.35808v-61.35808z" fill="#000000" p-id="3195"></path><path d="M389.05856 389.07904h-61.35808v61.58336h61.35808v-61.56288z" fill="#FFA733" p-id="3196"></path><path d="M389.05856 327.74144h-61.35808v61.35808h61.35808v-61.35808zM389.05856 266.17856h-61.35808v61.56288h61.35808v-61.56288z" fill="#FFA733" p-id="3197"></path><path d="M389.05856 204.84096h-61.35808v61.35808h61.35808v-61.35808z" fill="#000000" p-id="3198"></path><path d="M389.05856 143.48288h-61.35808v61.35808h61.35808V143.48288z" fill="#FFA733" p-id="3199"></path><path d="M389.05856 81.92h-61.35808v61.56288h61.35808V81.92zM327.70048 880.51712h-61.56288V942.08H327.68v-61.56288z" fill="#000000" p-id="3200"></path><path d="M327.70048 819.15904h-61.56288v61.37856H327.68v-61.35808z" fill="#FFA733" p-id="3201"></path><path d="M327.70048 757.82144h-61.56288v61.35808H327.68v-61.35808z" fill="#FFA733" p-id="3202"></path><path d="M327.70048 696.25856h-61.56288v61.56288H327.68v-61.56288z" fill="#000000" p-id="3203"></path><path d="M327.70048 634.90048h-61.56288v61.35808H327.68v-61.35808zM327.70048 573.3376h-61.56288v61.56288H327.68v-61.56288z" fill="#AA6100" p-id="3204"></path><path d="M327.70048 512h-61.56288v61.35808H327.68V512z" fill="#AA6100" p-id="3205"></path><path d="M327.70048 450.64192h-61.56288V512H327.68v-61.35808z" fill="#000000" p-id="3206"></path><path d="M327.70048 389.07904h-61.56288v61.58336H327.68v-61.56288z" fill="#FFA733" p-id="3207"></path><path d="M327.70048 327.74144h-61.56288v61.35808H327.68v-61.35808zM327.70048 266.17856h-61.56288v61.56288H327.68v-61.56288z" fill="#FFA733" p-id="3208"></path><path d="M327.70048 204.84096h-61.56288v61.35808H327.68v-61.35808zM327.70048 143.48288h-61.56288v61.35808H327.68V143.48288z" fill="#FFA733" p-id="3209"></path><path d="M327.70048 81.92h-61.56288v61.56288H327.68V81.92zM266.1376 880.51712H204.77952V942.08h61.35808v-61.56288z" fill="#000000" p-id="3210"></path><path d="M266.1376 819.15904H204.77952v61.37856h61.35808v-61.35808z" fill="#FFA733" p-id="3211"></path><path d="M266.1376 757.82144H204.77952v61.35808h61.35808v-61.35808z" fill="#FFA733" p-id="3212"></path><path d="M266.1376 696.25856H204.77952v61.56288h61.35808v-61.56288z" fill="#000000" p-id="3213"></path><path d="M266.1376 634.90048H204.77952v61.35808h61.35808v-61.35808zM266.1376 573.3376H204.77952v61.56288h61.35808v-61.56288z" fill="#AA6100" p-id="3214"></path><path d="M266.1376 512H204.77952v61.35808h61.35808V512z" fill="#AA6100" p-id="3215"></path><path d="M266.1376 450.64192H204.77952V512h61.35808v-61.35808z" fill="#000000" p-id="3216"></path><path d="M266.1376 389.07904H204.77952v61.58336h61.35808v-61.56288z" fill="#FFA733" p-id="3217"></path><path d="M266.1376 327.74144H204.77952v61.35808h61.35808v-61.35808zM266.1376 266.17856H204.77952v61.56288h61.35808v-61.56288z" fill="#FFA733" p-id="3218"></path><path d="M266.1376 204.84096H204.77952v61.35808h61.35808v-61.35808z" fill="#FFA733" p-id="3219"></path><path d="M266.1376 143.48288H204.77952v61.35808h61.35808V143.48288zM204.77952 880.51712H143.40096V942.08H204.8v-61.56288z" fill="#000000" p-id="3220"></path><path d="M204.77952 819.15904H143.40096v61.37856H204.8v-61.35808z" fill="#FFA733" p-id="3221"></path><path d="M204.77952 757.82144H143.40096v61.35808H204.8v-61.35808z" fill="#FFA733" p-id="3222"></path><path d="M204.77952 696.25856H143.40096v61.56288H204.8v-61.56288z" fill="#000000" p-id="3223"></path><path d="M204.77952 634.90048H143.40096v61.35808H204.8v-61.35808zM204.77952 573.3376H143.40096v61.56288H204.8v-61.56288z" fill="#AA6100" p-id="3224"></path><path d="M204.77952 512H143.40096v61.35808H204.8V512z" fill="#AA6100" p-id="3225"></path><path d="M204.77952 450.64192H143.40096V512H204.8v-61.35808z" fill="#000000" p-id="3226"></path><path d="M204.77952 389.07904H143.40096v61.58336H204.8v-61.56288z" fill="#FFA733" p-id="3227"></path><path d="M204.77952 327.74144H143.40096v61.35808H204.8v-61.35808zM204.77952 266.17856H143.40096v61.56288H204.8v-61.56288z" fill="#FFA733" p-id="3228"></path><path d="M204.77952 204.84096H143.40096v61.35808H204.8v-61.35808zM143.42144 819.15904H81.83808v61.37856h61.58336v-61.35808z" fill="#000000" p-id="3229"></path><path d="M143.42144 757.82144H81.83808v61.35808h61.58336v-61.35808zM143.42144 696.25856H81.83808v61.56288h61.58336v-61.56288z" fill="#000000" p-id="3230"></path><path d="M143.42144 634.90048H81.83808v61.35808h61.58336v-61.35808zM143.42144 573.3376H81.83808v61.56288h61.58336v-61.56288z" fill="#AA6100" p-id="3231"></path><path d="M143.42144 512H81.83808v61.35808h61.58336V512z" fill="#AA6100" p-id="3232"></path><path d="M143.42144 450.64192H81.83808V512h61.58336v-61.35808z" fill="#000000" p-id="3233"></path><path d="M143.42144 389.07904H81.83808v61.58336h61.58336v-61.56288z" fill="#000000" p-id="3234"></path><path d="M143.42144 327.74144H81.83808v61.35808h61.58336v-61.35808zM143.42144 266.17856H81.83808v61.56288h61.58336v-61.56288zM81.83808 634.90048H20.48v61.35808h61.35808v-61.35808zM81.83808 573.3376H20.48v61.56288h61.35808v-61.56288z" fill="#000000" p-id="3235"></path><path d="M81.83808 512H20.48v61.35808h61.35808V512z" fill="#000000" p-id="3236"></path></svg>